Coordinates
version=1
nRows=9
nColumns=63
inDegrees=yes

Units are S.I. units (second, meters, Newtons, ...)
If the header above contains a line with 'inDegrees', this indicates whether rotational values are in degrees (yes) or radians (no).

endheader
time	pelvis_tilt	pelvis_list	pelvis_rotation	pelvis_tx	pelvis_ty	pelvis_tz	hip_flexion_r	hip_adduction_r	hip_rotation_r	knee_angle_r	knee_angle_r_beta	ankle_angle_r	subtalar_angle_r	mtp_angle_r	hip_flexion_l	hip_adduction_l	hip_rotation_l	knee_angle_l	knee_angle_l_beta	ankle_angle_l	subtalar_angle_l	mtp_angle_l	L5_S1_Flex_Ext	L5_S1_Lat_Bending	L5_S1_axial_rotation	L4_L5_Flex_Ext	L4_L5_Lat_Bending	L4_L5_axial_rotation	L3_L4_Flex_Ext	L3_L4_Lat_Bending	L3_L4_axial_rotation	L2_L3_Flex_Ext	L2_L3_Lat_Bending	L2_L3_axial_rotation	L1_L2_Flex_Ext	L1_L2_Lat_Bending	L1_L2_axial_rotation	L1_T12_Flex_Ext	L1_T12_Lat_Bending	L1_T12_axial_rotation	Abs_r3	Abs_r2	Abs_r1	Abs_t1	Abs_t2	neck_flexion	neck_bending	neck_rotation	arm_flex_r	arm_add_r	arm_rot_r	elbow_flex_r	pro_sup_r	wrist_flex_r	wrist_dev_r	arm_flex_l	arm_add_l	arm_rot_l	elbow_flex_l	pro_sup_l	wrist_flex_l	wrist_dev_l
0.000000	-0.612297	-5.236789	95.294376	0.411178	0.945731	0.602551	11.323783	0.307043	-7.468360	15.805782	0.275863	34.723384	14.432854	0.000000	20.421871	-7.280754	-0.207949	26.800361	0.467755	34.690425	16.158018	0.000000	0.059951	0.157822	-0.549468	0.111334	0.209903	-0.583810	0.098493	0.383728	-0.583810	0.068518	0.383728	-0.480784	0.055670	0.321830	-0.446443	0.034256	0.244466	-0.412101	0.428221	1.785311	-3.055975	0.000000	0.000000	26.013749	1.225834	-1.272653	15.094407	-10.847865	55.179943	39.536996	36.315950	9.622039	6.772551	15.377875	-6.604827	56.552667	40.940756	51.852800	3.448555	0.443818
0.016949	-0.685045	-5.180657	94.778606	0.411293	0.945760	0.602730	11.325211	0.252872	-7.063052	16.286845	0.284259	33.650400	14.963426	0.000000	20.182483	-7.316698	-0.475629	26.839471	0.468437	33.507556	15.732569	0.000000	0.067163	0.160899	-0.511161	0.124729	0.213995	-0.543109	0.110343	0.391209	-0.543109	0.076761	0.391209	-0.447266	0.062368	0.328104	-0.415318	0.038377	0.249232	-0.383371	0.479741	1.820117	-2.842925	0.000000	0.000000	26.079879	1.563672	-0.831212	14.766642	-10.750026	54.348059	39.383720	38.064095	9.539185	5.073698	15.595289	-6.494751	56.766904	40.719782	50.611834	3.845150	1.956155
0.033898	-0.753207	-5.128755	94.325209	0.411436	0.945790	0.602717	11.313476	0.213356	-6.652218	16.662775	0.290820	32.898820	15.431635	0.000000	19.957130	-7.359065	-0.798480	26.860784	0.468809	32.679521	15.354713	0.000000	0.075101	0.163409	-0.463001	0.139470	0.217334	-0.491938	0.123384	0.397313	-0.491938	0.085833	0.397313	-0.405126	0.069739	0.333224	-0.376188	0.042913	0.253121	-0.347250	0.536440	1.848516	-2.575070	0.000000	0.000000	26.140574	1.773510	-0.549065	14.437169	-10.700452	53.753008	39.276391	39.109912	9.440174	3.858421	15.713503	-6.405708	56.956307	40.541707	50.049250	4.120920	3.043312
0.050847	-0.817529	-5.080913	93.928864	0.411604	0.945819	0.602535	11.290388	0.186350	-6.239075	16.943524	0.295720	32.435018	15.841138	0.000000	19.745628	-7.406316	-1.168807	26.866152	0.468903	32.170248	15.022507	0.000000	0.083605	0.165320	-0.406562	0.155263	0.219876	-0.431972	0.137354	0.401959	-0.431972	0.095552	0.401959	-0.355742	0.077636	0.337121	-0.330332	0.047772	0.256081	-0.304921	0.597181	1.870135	-2.261175	0.000000	0.000000	26.195773	1.869425	-0.408826	14.106780	-10.692726	53.359576	39.212898	39.548268	9.327515	3.075361	15.744186	-6.336874	57.120065	40.405950	50.096045	4.288343	3.746305
0.067797	-0.878755	-5.036961	93.584245	0.411791	0.945846	0.602210	11.257758	0.169707	-5.826837	17.139044	0.299133	32.225368	16.195591	0.000000	19.547795	-7.456914	-1.578913	26.857432	0.468751	31.943669	14.734010	0.000000	0.092515	0.166599	-0.343421	0.171810	0.221576	-0.364884	0.151993	0.405068	-0.364884	0.105736	0.405068	-0.300493	0.085910	0.339728	-0.279029	0.052863	0.258061	-0.257566	0.660826	1.884598	-1.910003	0.000000	0.000000	26.245414	1.865496	-0.393106	13.776266	-10.720435	53.132550	39.191132	39.474032	9.203713	2.673160	15.699007	-6.287421	57.257362	40.311934	50.683218	4.359894	4.106153
0.084746	-0.937633	-4.996728	93.286029	0.411996	0.945868	0.601765	11.217397	0.161282	-5.418720	17.259283	0.301231	32.236244	16.498650	0.000000	19.363449	-7.509322	-2.021101	26.836476	0.468385	31.963715	14.487281	0.000000	0.101673	0.167212	-0.275153	0.188816	0.222391	-0.292350	0.167038	0.406558	-0.292350	0.116202	0.406558	-0.240759	0.094413	0.340978	-0.223562	0.058096	0.259011	-0.206365	0.726237	1.891531	-1.530317	0.000000	0.000000	26.289434	1.775799	-0.484518	13.446416	-10.777162	53.036715	39.208985	38.982073	9.071278	2.600460	15.589633	-6.256525	57.367386	40.259080	51.741764	4.348051	4.163872
0.101695	-0.994909	-4.960045	93.028893	0.412213	0.945884	0.601226	11.171115	0.158927	-5.017940	17.314194	0.302190	32.434021	16.753973	0.000000	19.192406	-7.562001	-2.487677	26.805139	0.467838	32.194315	14.280377	0.000000	0.110918	0.167126	-0.203333	0.205986	0.222277	-0.216042	0.182227	0.406350	-0.216042	0.126768	0.406350	-0.177917	0.102998	0.340803	-0.165208	0.063378	0.258878	-0.152500	0.792275	1.890561	-1.130880	0.000000	0.000000	26.327771	1.614412	-0.665673	13.118021	-10.856493	53.036860	39.264348	38.167257	8.932715	2.805903	15.427734	-6.243360	57.449322	40.246809	53.202680	4.265291	3.960481
0.118644	-1.051329	-4.926743	92.807513	0.412439	0.945891	0.600617	11.120725	0.160498	-4.627712	17.313728	0.302182	32.785072	16.965215	0.000000	19.034484	-7.613416	-2.970942	26.765276	0.467142	32.599400	14.111357	0.000000	0.120092	0.166308	-0.129539	0.223023	0.221190	-0.137635	0.197299	0.404362	-0.137635	0.137253	0.404362	-0.113346	0.111517	0.339136	-0.105250	0.068620	0.257611	-0.097154	0.857804	1.881312	-0.720456	0.000000	0.000000	26.360365	1.395412	-0.919185	12.791872	-10.952014	53.097769	39.355110	37.124455	8.790532	3.238131	15.224978	-6.247099	57.502358	40.274543	54.996963	4.124089	3.536995
0.135593	-1.107639	-4.896650	92.616566	0.412671	0.945888	0.599962	11.068036	0.163848	-4.251251	17.267834	0.301381	33.255772	17.136033	0.000000	18.889500	-7.662028	-3.463201	26.718741	0.466330	33.142902	13.978280	0.000000	0.129035	0.164726	-0.055344	0.239631	0.219085	-0.058803	0.211992	0.400514	-0.058803	0.147474	0.400514	-0.048426	0.119822	0.335909	-0.044967	0.073731	0.255160	-0.041508	0.921685	1.863411	-0.307809	0.000000	0.000000	26.387151	1.132877	-1.227664	12.468760	-11.057309	53.184229	39.479163	35.948534	8.647236	3.845785	14.993032	-6.266918	57.525679	40.341704	57.055610	3.936922	2.934434
